<mxfile host="65bd71144e">
    <diagram id="R2lEEEUBdFMjLlhIrx00" name="Page-1">
        <mxGraphModel dx="1598" dy="409" grid="1" gridSize="10" guides="1" tooltips="1" connect="1" arrows="1" fold="1" page="1" pageScale="1" pageWidth="850" pageHeight="1100" math="0" shadow="0" extFonts="Permanent Marker^https://fonts.googleapis.com/css?family=Permanent+Marker">
            <root>
                <mxCell id="0"/>
                <mxCell id="1" parent="0"/>
                <mxCell id="hEpRIRDWZdSRR4FLUEar-30" value="Autista" style="swimlane;childLayout=stackLayout;horizontal=1;startSize=30;horizontalStack=0;rounded=1;fontSize=14;fontStyle=0;strokeWidth=2;resizeParent=0;resizeLast=1;shadow=0;dashed=0;align=center;" parent="1" vertex="1">
                    <mxGeometry x="270" y="340" width="160" height="130" as="geometry"/>
                </mxCell>
                <mxCell id="hEpRIRDWZdSRR4FLUEar-31" value="Nome&#10;Cognome&#10;CodiceFiscale&#10;ScandezaPatente&#10;Telefono&#10;Email" style="align=left;strokeColor=none;fillColor=none;spacingLeft=4;fontSize=12;verticalAlign=top;resizable=0;rotatable=0;part=1;" parent="hEpRIRDWZdSRR4FLUEar-30" vertex="1">
                    <mxGeometry y="30" width="160" height="100" as="geometry"/>
                </mxCell>
                <mxCell id="hEpRIRDWZdSRR4FLUEar-32" value="Viaggio" style="swimlane;childLayout=stackLayout;horizontal=1;startSize=30;horizontalStack=0;rounded=1;fontSize=14;fontStyle=0;strokeWidth=2;resizeParent=0;resizeLast=1;shadow=0;dashed=0;align=center;" parent="1" vertex="1">
                    <mxGeometry x="40" y="340" width="160" height="150" as="geometry"/>
                </mxCell>
                <mxCell id="hEpRIRDWZdSRR4FLUEar-33" value="Citta Partenza&#10;Citta Arrivo&#10;Data Partenza&#10;Data Arrivo&#10;Costo per passeggiero&#10;IDviaggio" style="align=left;strokeColor=none;fillColor=none;spacingLeft=4;fontSize=12;verticalAlign=top;resizable=0;rotatable=0;part=1;" parent="hEpRIRDWZdSRR4FLUEar-32" vertex="1">
                    <mxGeometry y="30" width="160" height="120" as="geometry"/>
                </mxCell>
                <mxCell id="8EO9_JQ7CGqLhnZqvFum-2" value="Auto" style="swimlane;childLayout=stackLayout;horizontal=1;startSize=30;horizontalStack=0;rounded=1;fontSize=14;fontStyle=0;strokeWidth=2;resizeParent=0;resizeLast=1;shadow=0;dashed=0;align=center;" parent="1" vertex="1">
                    <mxGeometry x="470" y="340" width="160" height="100" as="geometry"/>
                </mxCell>
                <mxCell id="8EO9_JQ7CGqLhnZqvFum-3" value="Modello&#10;Colore&#10;Posti totali&#10;Targa" style="align=left;strokeColor=none;fillColor=none;spacingLeft=4;fontSize=12;verticalAlign=top;resizable=0;rotatable=0;part=1;" parent="8EO9_JQ7CGqLhnZqvFum-2" vertex="1">
                    <mxGeometry y="30" width="160" height="70" as="geometry"/>
                </mxCell>
                <mxCell id="8EO9_JQ7CGqLhnZqvFum-7" value="" style="edgeStyle=entityRelationEdgeStyle;fontSize=12;html=1;endArrow=ERmany;rounded=0;exitX=1;exitY=0.333;exitDx=0;exitDy=0;exitPerimeter=0;entryX=0;entryY=0.5;entryDx=0;entryDy=0;" parent="1" source="hEpRIRDWZdSRR4FLUEar-31" target="8EO9_JQ7CGqLhnZqvFum-3" edge="1">
                    <mxGeometry width="100" height="100" relative="1" as="geometry">
                        <mxPoint x="430" y="480" as="sourcePoint"/>
                        <mxPoint x="470" y="400" as="targetPoint"/>
                    </mxGeometry>
                </mxCell>
                <mxCell id="8EO9_JQ7CGqLhnZqvFum-8" value="Passeggero" style="swimlane;childLayout=stackLayout;horizontal=1;startSize=30;horizontalStack=0;rounded=1;fontSize=14;fontStyle=0;strokeWidth=2;resizeParent=0;resizeLast=1;shadow=0;dashed=0;align=center;" parent="1" vertex="1">
                    <mxGeometry x="-210" y="345" width="160" height="120" as="geometry"/>
                </mxCell>
                <mxCell id="8EO9_JQ7CGqLhnZqvFum-9" value="Nome&#10;Cognome&#10;CodiceFiscale&#10;" style="align=left;strokeColor=none;fillColor=none;spacingLeft=4;fontSize=12;verticalAlign=top;resizable=0;rotatable=0;part=1;" parent="8EO9_JQ7CGqLhnZqvFum-8" vertex="1">
                    <mxGeometry y="30" width="160" height="90" as="geometry"/>
                </mxCell>
                <mxCell id="8EO9_JQ7CGqLhnZqvFum-11" value="Feedback Passeggero" style="swimlane;childLayout=stackLayout;horizontal=1;startSize=30;horizontalStack=0;rounded=1;fontSize=14;fontStyle=0;strokeWidth=2;resizeParent=0;resizeLast=1;shadow=0;dashed=0;align=center;fillColor=#FF3333;" parent="1" vertex="1">
                    <mxGeometry x="-210" y="170" width="160" height="120" as="geometry"/>
                </mxCell>
                <mxCell id="8EO9_JQ7CGqLhnZqvFum-12" value="codiceFiscaleAutista&#10;codiceFiscalePasseggero&#10;CodiceViaggio&#10;Feedback" style="align=left;strokeColor=none;fillColor=none;spacingLeft=4;fontSize=12;verticalAlign=top;resizable=0;rotatable=0;part=1;" parent="8EO9_JQ7CGqLhnZqvFum-11" vertex="1">
                    <mxGeometry y="30" width="160" height="90" as="geometry"/>
                </mxCell>
                <mxCell id="8EO9_JQ7CGqLhnZqvFum-13" value="Feedback Autista" style="swimlane;childLayout=stackLayout;horizontal=1;startSize=30;horizontalStack=0;rounded=1;fontSize=14;fontStyle=0;strokeWidth=2;resizeParent=0;resizeLast=1;shadow=0;dashed=0;align=center;" parent="1" vertex="1">
                    <mxGeometry x="270" y="170" width="160" height="120" as="geometry"/>
                </mxCell>
                <mxCell id="8EO9_JQ7CGqLhnZqvFum-14" value="codiceFiscaleAutista&#10;codiceFiscalePasseggero&#10;CodiceViaggio&#10;Feedback" style="align=left;strokeColor=none;fillColor=none;spacingLeft=4;fontSize=12;verticalAlign=top;resizable=0;rotatable=0;part=1;" parent="8EO9_JQ7CGqLhnZqvFum-13" vertex="1">
                    <mxGeometry y="30" width="160" height="90" as="geometry"/>
                </mxCell>
                <mxCell id="8EO9_JQ7CGqLhnZqvFum-15" value="" style="edgeStyle=entityRelationEdgeStyle;fontSize=12;html=1;endArrow=ERmany;rounded=0;exitX=0.003;exitY=0.409;exitDx=0;exitDy=0;exitPerimeter=0;entryX=1.004;entryY=0.336;entryDx=0;entryDy=0;entryPerimeter=0;" parent="1" source="hEpRIRDWZdSRR4FLUEar-31" target="hEpRIRDWZdSRR4FLUEar-33" edge="1">
                    <mxGeometry width="100" height="100" relative="1" as="geometry">
                        <mxPoint x="220" y="530" as="sourcePoint"/>
                        <mxPoint x="320" y="430" as="targetPoint"/>
                    </mxGeometry>
                </mxCell>
                <mxCell id="8EO9_JQ7CGqLhnZqvFum-17" value="" style="edgeStyle=entityRelationEdgeStyle;fontSize=12;html=1;endArrow=ERmany;startArrow=ERmany;rounded=0;exitX=-0.005;exitY=0.423;exitDx=0;exitDy=0;exitPerimeter=0;entryX=1;entryY=0.5;entryDx=0;entryDy=0;" parent="1" source="hEpRIRDWZdSRR4FLUEar-33" target="8EO9_JQ7CGqLhnZqvFum-9" edge="1">
                    <mxGeometry width="100" height="100" relative="1" as="geometry">
                        <mxPoint x="-139.42853655133928" y="530" as="sourcePoint"/>
                        <mxPoint x="10" y="419" as="targetPoint"/>
                    </mxGeometry>
                </mxCell>
                <mxCell id="vViLYMzWrKMkgLxS8egt-4" value="" style="edgeStyle=entityRelationEdgeStyle;fontSize=12;html=1;endArrow=ERmany;rounded=0;entryX=1;entryY=0;entryDx=0;entryDy=0;exitX=1;exitY=0.25;exitDx=0;exitDy=0;" parent="1" source="8EO9_JQ7CGqLhnZqvFum-14" target="hEpRIRDWZdSRR4FLUEar-31" edge="1">
                    <mxGeometry width="100" height="100" relative="1" as="geometry">
                        <mxPoint x="430" y="560" as="sourcePoint"/>
                        <mxPoint x="430" y="560" as="targetPoint"/>
                    </mxGeometry>
                </mxCell>
                <mxCell id="vViLYMzWrKMkgLxS8egt-5" value="" style="edgeStyle=entityRelationEdgeStyle;fontSize=12;html=1;endArrow=ERmany;rounded=0;entryX=0.994;entryY=0.322;entryDx=0;entryDy=0;entryPerimeter=0;" parent="1" source="8EO9_JQ7CGqLhnZqvFum-12" target="8EO9_JQ7CGqLhnZqvFum-9" edge="1">
                    <mxGeometry width="100" height="100" relative="1" as="geometry">
                        <mxPoint x="-390" y="480" as="sourcePoint"/>
                        <mxPoint y="380" as="targetPoint"/>
                    </mxGeometry>
                </mxCell>
            </root>
        </mxGraphModel>
    </diagram>
</mxfile>